<?xml version="1.0" encoding="UTF-8" standalone="no"?>
<svg
   xmlns:dc="http://purl.org/dc/elements/1.1/"
   xmlns:cc="http://creativecommons.org/ns#"
   xmlns:rdf="http://www.w3.org/1999/02/22-rdf-syntax-ns#"
   xmlns:svg="http://www.w3.org/2000/svg"
   xmlns="http://www.w3.org/2000/svg"
   viewBox="0 0 968.92267 630.15332"
   height="630.15332"
   width="968.92267"
   xml:space="preserve"
   id="svg2"
   version="1.1"><metadata
     id="metadata8"><rdf:RDF><cc:Work
         rdf:about=""><dc:format>image/svg+xml</dc:format><dc:type
           rdf:resource="http://purl.org/dc/dcmitype/StillImage" /></cc:Work></rdf:RDF></metadata><defs
     id="defs6" /><g
     transform="matrix(1.3333333,0,0,-1.3333333,0,630.15333)"
     id="g10"><g
       transform="translate(77.365,236.308)"
       id="g12"><g
         id="g14"><g
           id="g16"><g
             id="g18"><g
               id="g20"><g
                 id="g22"><g
                   transform="translate(2.14471,-2.14471)"
                   id="g24"><path
                     id="path26"
                     style="fill:#808080;fill-opacity:0.2;fill-rule:nonzero;stroke:none"
                     d="m 48.72342,31.18144 h -97.44684 c -4.40187,0 -7.97021,-3.56833 -7.97021,-7.97021 v -46.42246 c 0,-4.40188 3.56834,-7.97021 7.97021,-7.97021 h 97.44684 c 4.40187,0 7.97021,3.56833 7.97021,7.97021 v 46.42246 c 0,4.40188 -3.56834,7.97021 -7.97021,7.97021 z" /></g></g></g><g
               id="g28"><path
                 id="path30"
                 style="fill:#ffffff;fill-opacity:1;fill-rule:nonzero;stroke:#cccccc;stroke-width:1.49442005;stroke-linecap:butt;stroke-linejoin:miter;stroke-miterlimit:10;stroke-dasharray:none;stroke-opacity:1"
                 d="m 48.72342,31.18144 h -97.44684 c -4.40187,0 -7.97021,-3.56833 -7.97021,-7.97021 v -46.42246 c 0,-4.40188 3.56834,-7.97021 7.97021,-7.97021 h 97.44684 c 4.40187,0 7.97021,3.56833 7.97021,7.97021 v 46.42246 c 0,4.40188 -3.56834,7.97021 -7.97021,7.97021 z" /></g><g
               transform="translate(-48.403,-11.142)"
               id="g32"><g
                 id="g34"><g
                   transform="translate(-28.962,-225.166)"
                   id="g36"><text
                     id="text40"
                     style="font-variant:normal;font-weight:bold;font-size:24.78709984px;font-family:LMSans10;-inkscape-font-specification:LMSans10-Bold;writing-mode:lr-tb;fill:#000000;fill-opacity:1;fill-rule:nonzero;stroke:none"
                     transform="matrix(1,0,0,-1,28.962,225.166)"><tspan
                       id="tspan38"
                       y="0"
                       x="0 15.147397 34.838268 49.22718 57.419315 77.110191">SÓLIDO</tspan></text>
<g
                     transform="translate(28.962,225.166)"
                     id="g42" /></g></g><g
                 transform="translate(48.403,11.142)"
                 id="g44" /></g></g><g
             id="g46"><g
               id="g48"><g
                 id="g50"><g
                   transform="translate(2.14471,-2.14471)"
                   id="g52"><path
                     id="path54"
                     style="fill:#808080;fill-opacity:0.2;fill-rule:nonzero;stroke:none"
                     d="m 335.72913,31.18144 h -99.48995 c -4.40188,0 -7.97021,-3.56833 -7.97021,-7.97021 v -46.42246 c 0,-4.40188 3.56833,-7.97021 7.97021,-7.97021 h 99.48995 c 4.40188,0 7.97021,3.56833 7.97021,7.97021 v 46.42246 c 0,4.40188 -3.56833,7.97021 -7.97021,7.97021 z" /></g></g></g><g
               id="g56"><path
                 id="path58"
                 style="fill:#ffffff;fill-opacity:1;fill-rule:nonzero;stroke:#cccccc;stroke-width:1.49442005;stroke-linecap:butt;stroke-linejoin:miter;stroke-miterlimit:10;stroke-dasharray:none;stroke-opacity:1"
                 d="m 335.72913,31.18144 h -99.48995 c -4.40188,0 -7.97021,-3.56833 -7.97021,-7.97021 v -46.42246 c 0,-4.40188 3.56833,-7.97021 7.97021,-7.97021 h 99.48995 c 4.40188,0 7.97021,3.56833 7.97021,7.97021 v 46.42246 c 0,4.40188 -3.56833,7.97021 -7.97021,7.97021 z" /></g><g
               transform="translate(231.587,-9.828)"
               id="g60"><g
                 id="g62"><g
                   transform="translate(-308.952,-226.48)"
                   id="g64"><text
                     id="text68"
                     style="font-variant:normal;font-weight:bold;font-size:24.78709984px;font-family:LMSans10;-inkscape-font-specification:LMSans10-Bold;writing-mode:lr-tb;fill:#000000;fill-opacity:1;fill-rule:nonzero;stroke:none"
                     transform="matrix(1,0,0,-1,308.952,226.48)"><tspan
                       id="tspan66"
                       y="0"
                       x="0 14.388911 22.581049 42.271919 61.206787 69.398926 89.089798">LÍQUIDO</tspan></text>
<g
                     transform="translate(308.952,226.48)"
                     id="g70" /></g></g><g
                 transform="translate(-231.587,9.828)"
                 id="g72" /></g></g><g
             id="g74"><g
               id="g76"><g
                 id="g78"><g
                   transform="translate(2.14471,-2.14471)"
                   id="g80"><path
                     id="path82"
                     style="fill:#808080;fill-opacity:0.2;fill-rule:nonzero;stroke:none"
                     d="M 620.69174,31.18144 H 523.2449 c -4.40188,0 -7.97021,-3.56833 -7.97021,-7.97021 v -46.42246 c 0,-4.40188 3.56833,-7.97021 7.97021,-7.97021 h 97.44684 c 4.40189,0 7.97022,3.56833 7.97022,7.97021 v 46.42246 c 0,4.40188 -3.56833,7.97021 -7.97022,7.97021 z" /></g></g></g><g
               id="g84"><path
                 id="path86"
                 style="fill:#ffffff;fill-opacity:1;fill-rule:nonzero;stroke:#cccccc;stroke-width:1.49442005;stroke-linecap:butt;stroke-linejoin:miter;stroke-miterlimit:10;stroke-dasharray:none;stroke-opacity:1"
                 d="M 620.69174,31.18144 H 523.2449 c -4.40188,0 -7.97021,-3.56833 -7.97021,-7.97021 v -46.42246 c 0,-4.40188 3.56833,-7.97021 7.97021,-7.97021 h 97.44684 c 4.40189,0 7.97022,3.56833 7.97022,7.97021 v 46.42246 c 0,4.40188 -3.56833,7.97021 -7.97022,7.97021 z" /></g><g
               transform="translate(546.211,-8.607)"
               id="g88"><g
                 id="g90"><g
                   transform="translate(-623.576,-227.701)"
                   id="g92"><text
                     id="text96"
                     style="font-variant:normal;font-weight:bold;font-size:24.78709984px;font-family:LMSans10;-inkscape-font-specification:LMSans10-Bold;writing-mode:lr-tb;fill:#000000;fill-opacity:1;fill-rule:nonzero;stroke:none"
                     transform="matrix(1,0,0,-1,623.576,227.701)"><tspan
                       id="tspan94"
                       y="0"
                       x="0 18.17638 36.35276">GAS</tspan></text>
<g
                     transform="translate(623.576,227.701)"
                     id="g98" /></g></g><g
                 transform="translate(-546.211,8.607)"
                 id="g100" /></g></g><g
             id="g102"><path
               id="path104"
               style="fill:none;stroke:#d90000;stroke-width:2.49068999;stroke-linecap:butt;stroke-linejoin:miter;stroke-miterlimit:10;stroke-dasharray:none;stroke-opacity:1"
               d="M 57.44084,11.95532 H 219.8506" /><g
               transform="translate(213.20645,11.95532)"
               id="g106"><g
                 id="g108"><path
                   id="path110"
                   style="fill:#d90000;fill-opacity:1;fill-rule:nonzero;stroke:#d90000;stroke-width:2.49068999;stroke-linecap:butt;stroke-linejoin:round;stroke-miterlimit:10;stroke-dasharray:none;stroke-opacity:1"
                   d="M 13.06996,0 4.3471,2.94444 7.26683,0 4.3471,-2.94444 Z" /></g></g><g
               id="g112"><g
                 id="g114"><g
                   id="g116"><g
                     transform="translate(2.14471,-2.14471)"
                     id="g118"><path
                       id="path120"
                       style="fill:#808080;fill-opacity:0.1;fill-rule:nonzero;stroke:none"
                       d="M 164.49469,34.3716 H 120.4679 c -2.20093,0 -3.98511,-1.78417 -3.98511,-3.98511 V 18.43112 c 0,-2.20094 1.78418,-3.98511 3.98511,-3.98511 h 44.02679 c 2.20094,0 3.98511,1.78417 3.98511,3.98511 v 11.95537 c 0,2.20094 -1.78417,3.98511 -3.98511,3.98511 z" /></g></g></g><g
                 id="g122"><path
                   id="path124"
                   style="fill:#ffffff;fill-opacity:1;fill-rule:nonzero;stroke:#d90000;stroke-width:0.99628001;stroke-linecap:butt;stroke-linejoin:miter;stroke-miterlimit:10;stroke-dasharray:none;stroke-opacity:1"
                   d="M 164.49469,34.3716 H 120.4679 c -2.20093,0 -3.98511,-1.78417 -3.98511,-3.98511 V 18.43112 c 0,-2.20094 1.78418,-3.98511 3.98511,-3.98511 h 44.02679 c 2.20094,0 3.98511,1.78417 3.98511,3.98511 v 11.95537 c 0,2.20094 -1.78417,3.98511 -3.98511,3.98511 z" /></g><g
                 transform="translate(121.463,19.427)"
                 id="g126"><g
                   id="g128"><g
                     transform="translate(-198.828,-255.735)"
                     id="g130"><text
                       id="text134"
                       style="font-variant:normal;font-weight:bold;font-size:14.34619999px;font-family:LMSans10;-inkscape-font-specification:LMSans10-Bold;writing-mode:lr-tb;fill:#d90000;fill-opacity:1;fill-rule:nonzero;stroke:none"
                       transform="matrix(1,0,0,-1,198.828,255.735)"><tspan
                         id="tspan132"
                         y="0"
                         x="0 8.3222303 16.371883 22.421677 26.08713 33.977539">Fusión</tspan></text>
<g
                       transform="translate(198.828,255.735)"
                       id="g136" /></g></g><g
                   transform="translate(-121.463,-19.427)"
                   id="g138" /></g></g></g><g
             id="g140"><path
               id="path142"
               style="fill:none;stroke:#0000d9;stroke-width:2.49068999;stroke-linecap:butt;stroke-linejoin:miter;stroke-miterlimit:10;stroke-dasharray:none;stroke-opacity:1"
               d="M 227.52176,-11.95532 H 65.11198" /><g
               transform="rotate(180,35.878075,-5.97766)"
               id="g144"><g
                 id="g146"><path
                   id="path148"
                   style="fill:#0000d9;fill-opacity:1;fill-rule:nonzero;stroke:#0000d9;stroke-width:2.49068999;stroke-linecap:butt;stroke-linejoin:round;stroke-miterlimit:10;stroke-dasharray:none;stroke-opacity:1"
                   d="M 13.06996,0 4.3471,2.94444 7.26683,0 4.3471,-2.94444 Z" /></g></g><g
               id="g150"><g
                 id="g152"><g
                   id="g154"><g
                     transform="translate(2.14471,-2.14471)"
                     id="g156"><path
                       id="path158"
                       style="fill:#808080;fill-opacity:0.1;fill-rule:nonzero;stroke:none"
                       d="M 186.15761,-14.44601 H 98.80498 c -2.20095,0 -3.98511,-1.78417 -3.98511,-3.98511 v -11.95537 c 0,-2.20094 1.78416,-3.98511 3.98511,-3.98511 h 87.35263 c 2.20094,0 3.98511,1.78417 3.98511,3.98511 v 11.95537 c 0,2.20094 -1.78417,3.98511 -3.98511,3.98511 z" /></g></g></g><g
                 id="g160"><path
                   id="path162"
                   style="fill:#ffffff;fill-opacity:1;fill-rule:nonzero;stroke:#0000d9;stroke-width:0.99628001;stroke-linecap:butt;stroke-linejoin:miter;stroke-miterlimit:10;stroke-dasharray:none;stroke-opacity:1"
                   d="M 186.15761,-14.44601 H 98.80498 c -2.20095,0 -3.98511,-1.78417 -3.98511,-3.98511 v -11.95537 c 0,-2.20094 1.78416,-3.98511 3.98511,-3.98511 h 87.35263 c 2.20094,0 3.98511,1.78417 3.98511,3.98511 v 11.95537 c 0,2.20094 -1.78417,3.98511 -3.98511,3.98511 z" /></g><g
                 transform="translate(99.8,-29.39)"
                 id="g164"><g
                   id="g166"><g
                     transform="translate(-177.165,-206.918)"
                     id="g168"><text
                       id="text172"
                       style="font-variant:normal;font-weight:bold;font-size:14.34619999px;font-family:LMSans10;-inkscape-font-specification:LMSans10-Bold;writing-mode:lr-tb;fill:#0000d9;fill-opacity:1;fill-rule:nonzero;stroke:none"
                       transform="matrix(1,0,0,-1,177.165,206.918)"><tspan
                         id="tspan170"
                         y="0"
                         x="0 8.766963 16.657373 20.322826 23.988281 32.037933 35.703388 40.525146 44.190601 51.204456 58.736214 65.750069 69.41552 77.305931">Solidificación</tspan></text>
<g
                       transform="translate(177.165,206.918)"
                       id="g174" /></g></g><g
                   transform="translate(-99.8,29.39)"
                   id="g176" /></g></g></g><g
             id="g178"><path
               id="path180"
               style="fill:none;stroke:#d90000;stroke-width:2.49068999;stroke-linecap:butt;stroke-linejoin:miter;stroke-miterlimit:10;stroke-dasharray:none;stroke-opacity:1"
               d="M 344.44655,11.95532 H 506.85632" /><g
               transform="translate(500.21217,11.95532)"
               id="g182"><g
                 id="g184"><path
                   id="path186"
                   style="fill:#d90000;fill-opacity:1;fill-rule:nonzero;stroke:#d90000;stroke-width:2.49068999;stroke-linecap:butt;stroke-linejoin:round;stroke-miterlimit:10;stroke-dasharray:none;stroke-opacity:1"
                   d="M 13.06996,0 4.3471,2.94444 7.26683,0 4.3471,-2.94444 Z" /></g></g><g
               id="g188"><g
                 id="g190"><g
                   id="g192"><g
                     transform="translate(2.14471,-2.14471)"
                     id="g194"><path
                       id="path196"
                       style="fill:#808080;fill-opacity:0.1;fill-rule:nonzero;stroke:none"
                       d="m 472.25679,37.16116 h -85.53955 c -2.20094,0 -3.98511,-1.78416 -3.98511,-3.9851 V 18.43112 c 0,-2.20094 1.78417,-3.98511 3.98511,-3.98511 h 85.53955 c 2.20094,0 3.98511,1.78417 3.98511,3.98511 v 14.74494 c 0,2.20094 -1.78417,3.9851 -3.98511,3.9851 z" /></g></g></g><g
                 id="g198"><path
                   id="path200"
                   style="fill:#ffffff;fill-opacity:1;fill-rule:nonzero;stroke:#d90000;stroke-width:0.99628001;stroke-linecap:butt;stroke-linejoin:miter;stroke-miterlimit:10;stroke-dasharray:none;stroke-opacity:1"
                   d="m 472.25679,37.16116 h -85.53955 c -2.20094,0 -3.98511,-1.78416 -3.98511,-3.9851 V 18.43112 c 0,-2.20094 1.78417,-3.98511 3.98511,-3.98511 h 85.53955 c 2.20094,0 3.98511,1.78417 3.98511,3.98511 v 14.74494 c 0,2.20094 -1.78417,3.9851 -3.98511,3.9851 z" /></g><g
                 transform="translate(387.709,22.216)"
                 id="g202"><g
                   id="g204"><g
                     transform="translate(-465.074,-258.524)"
                     id="g206"><text
                       id="text210"
                       style="font-variant:normal;font-weight:bold;font-size:14.34619999px;font-family:LMSans10;-inkscape-font-specification:LMSans10-Bold;writing-mode:lr-tb;fill:#d90000;fill-opacity:1;fill-rule:nonzero;stroke:none"
                       transform="matrix(1,0,0,-1,465.074,258.524)"><tspan
                         id="tspan208"
                         y="0"
                         x="0 10.075336 17.607092 26.101477 33.547153 38.88681 42.566608 49.401138 56.932896 63.946751 67.612206 75.502617">Vaporización</tspan></text>
<g
                       transform="translate(465.074,258.524)"
                       id="g212" /></g></g><g
                   transform="translate(-387.709,-22.216)"
                   id="g214" /></g></g></g><g
             id="g216"><path
               id="path218"
               style="fill:none;stroke:#0000d9;stroke-width:2.49068999;stroke-linecap:butt;stroke-linejoin:miter;stroke-miterlimit:10;stroke-dasharray:none;stroke-opacity:1"
               d="M 514.52748,-11.95532 H 352.1177" /><g
               transform="rotate(180,179.38093,-5.97766)"
               id="g220"><g
                 id="g222"><path
                   id="path224"
                   style="fill:#0000d9;fill-opacity:1;fill-rule:nonzero;stroke:#0000d9;stroke-width:2.49068999;stroke-linecap:butt;stroke-linejoin:round;stroke-miterlimit:10;stroke-dasharray:none;stroke-opacity:1"
                   d="M 13.06996,0 4.3471,2.94444 7.26683,0 4.3471,-2.94444 Z" /></g></g><g
               id="g226"><g
                 id="g228"><g
                   id="g230"><g
                     transform="translate(2.14471,-2.14471)"
                     id="g232"><path
                       id="path234"
                       style="fill:#808080;fill-opacity:0.1;fill-rule:nonzero;stroke:none"
                       d="m 475.31146,-14.44601 h -91.64889 c -2.20095,0 -3.98511,-1.78417 -3.98511,-3.98511 v -11.95537 c 0,-2.20094 1.78416,-3.98511 3.98511,-3.98511 h 91.64889 c 2.20094,0 3.98511,1.78417 3.98511,3.98511 v 11.95537 c 0,2.20094 -1.78417,3.98511 -3.98511,3.98511 z" /></g></g></g><g
                 id="g236"><path
                   id="path238"
                   style="fill:#ffffff;fill-opacity:1;fill-rule:nonzero;stroke:#0000d9;stroke-width:0.99628001;stroke-linecap:butt;stroke-linejoin:miter;stroke-miterlimit:10;stroke-dasharray:none;stroke-opacity:1"
                   d="m 475.31146,-14.44601 h -91.64889 c -2.20095,0 -3.98511,-1.78417 -3.98511,-3.98511 v -11.95537 c 0,-2.20094 1.78416,-3.98511 3.98511,-3.98511 h 91.64889 c 2.20094,0 3.98511,1.78417 3.98511,3.98511 v 11.95537 c 0,2.20094 -1.78417,3.98511 -3.98511,3.98511 z" /></g><g
                 transform="translate(384.654,-29.39)"
                 id="g240"><g
                   id="g242"><g
                     transform="translate(-462.019,-206.918)"
                     id="g244"><text
                       id="text248"
                       style="font-variant:normal;font-weight:bold;font-size:14.34619999px;font-family:LMSans10;-inkscape-font-specification:LMSans10-Bold;writing-mode:lr-tb;fill:#0000d9;fill-opacity:1;fill-rule:nonzero;stroke:none"
                       transform="matrix(1,0,0,-1,462.019,206.918)"><tspan
                         id="tspan246"
                         y="0"
                         x="0 10.082509 17.972919 26.022572 34.072224 41.404568 49.45422 55.504013 63.035767 70.049622 73.71508 81.605492">Condensación</tspan></text>
<g
                       transform="translate(462.019,206.918)"
                       id="g250" /></g></g><g
                   transform="translate(-384.654,29.39)"
                   id="g252" /></g></g></g><g
             id="g254"><path
               id="path256"
               style="fill:none;stroke:#d90000;stroke-width:3.48696995;stroke-linecap:butt;stroke-linejoin:miter;stroke-miterlimit:10;stroke-dasharray:none;stroke-opacity:1"
               d="M 0,31.92865 C 126.12173,212.04887 435.09775,214.60489 566.40913,39.5967" /><g
               transform="matrix(0.58922,-0.80792,0.80792,0.58922,561.02318,46.93637)"
               id="g258"><g
                 id="g260"><path
                   id="path262"
                   style="fill:#d90000;fill-opacity:1;fill-rule:nonzero;stroke:#d90000;stroke-width:3.48696995;stroke-linecap:butt;stroke-linejoin:round;stroke-miterlimit:10;stroke-dasharray:none;stroke-opacity:1"
                   d="M 16.83221,0 6.36754,3.31863 9.8855,0 6.36754,-3.31863 Z" /></g></g><g
               id="g264"><g
                 id="g266"><g
                   id="g268"><g
                     transform="translate(2.14471,-2.14471)"
                     id="g270"><path
                       id="path272"
                       style="fill:#808080;fill-opacity:0.1;fill-rule:nonzero;stroke:none"
                       d="m 326.373,191.37973 h -80.77772 c -2.20095,0 -3.98511,-1.78416 -3.98511,-3.98511 v -11.95538 c 0,-2.20094 1.78416,-3.98511 3.98511,-3.98511 H 326.373 c 2.20094,0 3.98511,1.78417 3.98511,3.98511 v 11.95538 c 0,2.20095 -1.78417,3.98511 -3.98511,3.98511 z" /></g></g></g><g
                 id="g274"><path
                   id="path276"
                   style="fill:#ffffff;fill-opacity:1;fill-rule:nonzero;stroke:#d90000;stroke-width:0.99628001;stroke-linecap:butt;stroke-linejoin:miter;stroke-miterlimit:10;stroke-dasharray:none;stroke-opacity:1"
                   d="m 326.373,191.37973 h -80.77772 c -2.20095,0 -3.98511,-1.78416 -3.98511,-3.98511 v -11.95538 c 0,-2.20094 1.78416,-3.98511 3.98511,-3.98511 H 326.373 c 2.20094,0 3.98511,1.78417 3.98511,3.98511 v 11.95538 c 0,2.20095 -1.78417,3.98511 -3.98511,3.98511 z" /></g><g
                 transform="translate(246.589,176.433)"
                 id="g278"><g
                   id="g280"><g
                     transform="translate(-323.954,-412.741)"
                     id="g282"><text
                       id="text286"
                       style="font-variant:normal;font-weight:bold;font-size:14.34619999px;font-family:LMSans10;-inkscape-font-specification:LMSans10-Bold;writing-mode:lr-tb;fill:#d90000;fill-opacity:1;fill-rule:nonzero;stroke:none"
                       transform="matrix(1,0,0,-1,323.954,412.741)"><tspan
                         id="tspan284"
                         y="0"
                         x="0 8.766963 16.816616 24.866268 28.531723 32.197178 44.631027 52.162785 59.17664 62.842094 70.732506">Sublimación</tspan></text>
<g
                       transform="translate(323.954,412.741)"
                       id="g288" /></g></g><g
                   transform="translate(-246.589,-176.433)"
                   id="g290" /></g></g></g><g
             id="g292"><path
               id="path294"
               style="fill:none;stroke:#0000d9;stroke-width:3.48696995;stroke-linecap:butt;stroke-linejoin:miter;stroke-miterlimit:10;stroke-dasharray:none;stroke-opacity:1"
               d="M 571.96832,-31.92865 C 445.84654,-212.04887 136.8705,-214.60489 5.55911,-39.5967" /><g
               transform="matrix(-0.58922,0.80794,-0.80794,-0.58922,10.94513,-46.93665)"
               id="g296"><g
                 id="g298"><path
                   id="path300"
                   style="fill:#0000d9;fill-opacity:1;fill-rule:nonzero;stroke:#0000d9;stroke-width:3.48696995;stroke-linecap:butt;stroke-linejoin:round;stroke-miterlimit:10;stroke-dasharray:none;stroke-opacity:1"
                   d="M 16.83221,0 6.36754,3.31863 9.8855,0 6.36754,-3.31863 Z" /></g></g><g
               id="g302"><g
                 id="g304"><g
                   id="g306"><g
                     transform="translate(2.14471,-2.14471)"
                     id="g308"><path
                       id="path310"
                       style="fill:#808080;fill-opacity:0.1;fill-rule:nonzero;stroke:none"
                       d="M 352.11258,-171.45413 H 219.8557 c -2.20095,0 -3.98511,-1.78417 -3.98511,-3.98511 v -11.95538 c 0,-2.20095 1.78416,-3.98511 3.98511,-3.98511 h 132.25688 c 2.20094,0 3.98511,1.78416 3.98511,3.98511 v 11.95538 c 0,2.20094 -1.78417,3.98511 -3.98511,3.98511 z" /></g></g></g><g
                 id="g312"><path
                   id="path314"
                   style="fill:#ffffff;fill-opacity:1;fill-rule:nonzero;stroke:#0000d9;stroke-width:0.99628001;stroke-linecap:butt;stroke-linejoin:miter;stroke-miterlimit:10;stroke-dasharray:none;stroke-opacity:1"
                   d="M 352.11258,-171.45413 H 219.8557 c -2.20095,0 -3.98511,-1.78417 -3.98511,-3.98511 v -11.95538 c 0,-2.20095 1.78416,-3.98511 3.98511,-3.98511 h 132.25688 c 2.20094,0 3.98511,1.78416 3.98511,3.98511 v 11.95538 c 0,2.20094 -1.78417,3.98511 -3.98511,3.98511 z" /></g><g
                 transform="translate(220.85,-186.396)"
                 id="g316"><g
                   id="g318"><g
                     transform="translate(-298.215,-49.912)"
                     id="g320"><text
                       id="text324"
                       style="font-variant:normal;font-weight:bold;font-size:14.34619999px;font-family:LMSans10;-inkscape-font-specification:LMSans10-Bold;writing-mode:lr-tb;fill:#0000d9;fill-opacity:1;fill-rule:nonzero;stroke:none"
                       transform="matrix(1,0,0,-1,298.215,49.912)"><tspan
                         id="tspan322"
                         y="0"
                         x="0 8.766963 16.816616 24.866268 28.531723 32.197178 44.631027 52.162785 59.17664 62.842094 70.732506 84.047211 88.788635 96.838287 104.01138 111.34373 116.68338 122.73318">SublimaciónInversa</tspan></text>
<g
                       transform="translate(298.215,49.912)"
                       id="g326" /></g></g><g
                   transform="translate(-220.85,186.396)"
                   id="g328" /></g></g></g></g></g></g></g></svg>